<svg color="#0284c7" version="1.1" id="Layer_1" xmlns="http://www.w3.org/2000/svg" xmlns:xlink="http://www.w3.org/1999/xlink" x="0px" y="0px"
	 width="100%" viewBox="0 0 1008 1024" enable-background="new 0 0 1008 1024" xml:space="preserve">
<g transform="translate(-65 -77) scale(1.15)">
<path fill="currentColor" opacity="1.000000" stroke="none" 
	d="
M568.295776,508.330139 
	C580.208069,490.366547 591.369385,472.415741 597.982300,452.059998 
	C600.165039,445.341339 601.431030,438.507568 600.963684,431.426178 
	C600.558167,425.280640 596.872192,423.249146 591.436829,426.317902 
	C586.552917,429.075256 582.917114,433.251129 579.745300,437.774323 
	C565.470337,458.131378 557.714294,481.074005 554.574951,505.448669 
	C553.427979,514.354004 550.372559,521.544312 544.707458,528.155518 
	C535.818481,538.529053 527.060181,549.011841 517.264832,558.560791 
	C516.002808,559.791077 515.060303,561.542847 512.553406,561.759583 
	C510.324890,555.140198 510.131531,548.102661 510.097168,541.330933 
	C509.848602,492.353577 523.104248,447.978302 556.348267,410.871063 
	C566.162231,399.916656 577.666931,391.356384 592.584534,388.190399 
	C617.654419,382.869690 637.705383,397.910950 639.419312,423.433502 
	C641.028381,447.395721 634.190186,469.401489 622.827393,489.894562 
	C595.157227,539.798462 559.497375,583.302795 515.205322,619.398438 
	C497.862885,633.531494 478.473602,644.199890 455.923828,647.844238 
	C438.748596,650.619995 422.055328,649.447754 407.744171,638.603394 
	C391.107849,625.997192 386.024536,608.118103 387.305817,588.040100 
	C388.764008,565.190063 396.995819,544.282104 406.116394,523.638184 
	C414.933350,503.681580 425.464050,484.509216 433.284271,464.097046 
	C436.043457,456.895020 437.468719,449.389496 438.583069,441.808075 
	C439.051636,438.620361 438.518738,435.491028 437.613800,432.435150 
	C436.022156,427.060333 432.106415,424.595428 426.514008,425.725098 
	C413.957336,428.261475 404.036133,435.621094 394.845337,443.922913 
	C379.339478,457.928925 367.628662,474.882629 357.638977,493.127350 
	C352.475464,502.557770 343.819763,506.382019 334.262146,503.886322 
	C322.968140,500.937225 317.317047,489.482361 321.719971,478.260895 
	C324.233429,471.854950 328.143707,466.203369 331.972870,460.561523 
	C351.876221,431.236237 375.920563,406.471466 409.381348,392.730286 
	C423.870514,386.780121 438.989685,384.742401 454.309906,390.001678 
	C472.225647,396.151947 482.036163,411.045685 482.107819,432.392914 
	C482.168243,450.398682 476.667755,467.131927 469.923492,483.553284 
	C460.809021,505.745850 449.321136,526.888489 440.773163,549.325073 
	C435.462311,563.264954 431.642426,577.497375 433.130951,592.686157 
	C434.261963,604.227173 440.704376,610.137329 452.293671,609.707153 
	C463.146790,609.304321 472.539398,604.721802 481.555420,599.146057 
	C500.484192,587.439758 515.821594,571.637939 530.728394,555.454651 
	C544.273560,540.749695 557.133179,525.429504 568.295776,508.330139 
z"/>
<path fill="currentColor" opacity="1.000000" stroke="none" 
	d="
M539.421875,608.420654 
	C546.694946,601.349365 553.699951,594.508606 560.834167,587.541626 
	C561.991882,587.598022 562.445190,588.766663 562.981323,589.769592 
	C577.658020,617.225891 606.899231,616.648193 626.046387,602.390320 
	C642.466125,590.163391 653.636658,573.679993 663.362976,556.084534 
	C666.826721,549.818481 671.098267,544.924622 678.515137,543.526123 
	C692.099976,540.964661 703.492065,553.268921 699.411072,566.499634 
	C696.425781,576.177856 690.263367,584.212891 684.525269,592.359436 
	C669.626160,613.511963 651.833069,631.548218 627.524902,641.740417 
	C604.308350,651.474976 580.938232,652.174988 557.951843,640.724670 
	C547.846741,635.690857 540.426758,627.644287 534.197815,618.390625 
	C532.599854,616.016602 532.875000,614.122070 535.084717,612.340454 
	C536.507629,611.193237 537.801880,609.886475 539.421875,608.420654 
z"/>
</g>
</svg>
